# xmcd
#
# Track frame offsets:
#	150
#	16342
#	31516
#	47250
#	66749
#	87696
#	105453
#	118305
#	136082
#	152003
#
# Disc length: 2287 seconds
#
# Revision: 1
# Processed by: cddbd v1.5.2PL0 Copyright (c) Steve Scherf et al.
# Submitted via: audiograbber 1.83.01
#
DISCID=7c08ed0a
DTITLE=Various Artist - FH-7114 Foever Hits Young Country
DYEAR=1900
DGENRE=Karaoke
TTITLE0=Kenny Chesney - No Shoes, No Shirt, No Problem
TTITLE1=Ty England - Should've Asked Her Faster
TTITLE2=Neal McCoy - Then You Can Tell Me Goodbye
TTITLE3=Josh Turner - Long Black Train
TTITLE4=Lonestar - You Walked In
TTITLE5=Buddy Jewell - Help Pour Out The Rain
TTITLE6=Brad Paisley - Me Neither
TTITLE7=Brad Paisley - We Danced
TTITLE8=Brad Paisley - I Gonna Miss Here
TTITLE9=Keith Urban - Your Everything
EXTD=
EXTT0=
EXTT1=
EXTT2=
EXTT3=
EXTT4=
EXTT5=
EXTT6=
EXTT7=
EXTT8=
EXTT9=
PLAYORDER=
